<?xml version="1.0" encoding="utf-8"?>
<svg viewBox="0 0 500 500" xmlns="http://www.w3.org/2000/svg">
  <path style="fill: rgb(255, 252, 0);" d="M 39.961 351.983 L 39.961 352.002 C 40.213 361.363 40.291 370.777 41.87 380.081 C 43.543 389.924 45.935 399.521 50.498 408.455 C 56.668 420.545 65.14 430.756 75.836 439.097 C 83.514 445.086 91.902 449.84 101.188 452.839 C 114.727 457.206 128.696 458.88 142.869 458.963 C 151.711 459.018 160.547 459.239 169.392 459.202 C 233.629 458.932 297.869 459.667 362.107 458.806 C 370.631 458.69 379.016 457.65 387.382 456.121 C 403.418 453.186 417.589 446.343 429.713 435.526 C 443.844 422.923 453.378 407.499 457.681 388.883 C 460.498 376.715 461.203 364.37 461.323 351.981 L 461.323 349.509 C 461.323 348.551 460.959 139.011 460.924 136.243 C 460.83 128.634 460.27 121.083 458.844 113.597 C 457.109 104.474 454.658 95.585 450.289 87.333 C 445.677 78.613 439.9 70.773 432.753 63.922 C 421.807 53.426 409.175 46.002 394.469 42.076 C 381.187 38.53 367.636 37.746 353.987 37.758 C 353.964 37.754 353.913 37.617 353.909 37.549 L 147.309 37.549 C 147.304 37.619 147.302 37.69 147.297 37.758 C 139.55 37.9 131.792 37.841 124.085 38.797 C 115.642 39.846 107.279 41.427 99.288 44.379 C 86.701 49.035 75.765 56.286 66.422 65.968 C 55.838 76.936 48.377 89.621 44.418 104.393 C 40.887 117.572 40.118 131.014 40.1 144.55"/>
  <path style="fill: rgb(255, 255, 255);" d="M 252.554 393.335 C 251.679 393.335 250.843 393.303 250.208 393.273 C 249.705 393.317 249.184 393.335 248.663 393.335 C 230.278 393.335 217.986 384.644 207.138 376.97 C 199.362 371.477 192.029 366.292 183.439 364.863 C 179.219 364.163 175.022 363.808 170.967 363.808 C 163.66 363.808 157.886 364.942 153.671 365.766 C 151.077 366.272 148.839 366.706 147.11 366.706 C 145.299 366.706 143.099 366.305 142.182 363.174 C 141.455 360.705 140.935 358.312 140.431 356.008 C 139.173 350.25 138.26 346.735 136.104 346.401 C 113.046 342.844 99.421 337.603 96.708 331.256 C 96.423 330.588 96.264 329.918 96.228 329.254 C 96.123 327.363 97.459 325.703 99.324 325.394 C 117.636 322.378 133.918 312.699 147.721 296.617 C 158.413 284.166 163.664 272.27 164.228 270.956 C 164.252 270.898 164.281 270.836 164.31 270.779 C 166.971 265.38 167.501 260.716 165.889 256.918 C 162.918 249.911 153.077 246.79 146.567 244.724 C 144.948 244.211 143.417 243.727 142.197 243.242 C 136.425 240.963 126.934 236.146 128.199 229.498 C 129.119 224.651 135.531 221.275 140.713 221.275 C 142.152 221.275 143.427 221.527 144.5 222.031 C 150.356 224.775 155.624 226.165 160.155 226.165 C 165.788 226.165 168.51 224.019 169.168 223.411 C 169.006 220.405 168.808 217.227 168.615 214.221 C 168.615 214.218 168.612 214.182 168.612 214.182 C 167.289 193.144 165.639 166.962 172.336 151.948 C 192.381 107.007 234.889 103.511 247.435 103.511 C 247.77 103.511 252.904 103.461 252.904 103.461 C 253.136 103.457 253.388 103.454 253.648 103.454 C 266.23 103.454 308.826 106.953 328.883 151.922 C 335.58 166.945 333.929 193.149 332.601 214.209 L 332.54 215.217 C 332.357 218.076 332.19 220.783 332.048 223.407 C 332.668 223.977 335.158 225.944 340.224 226.142 C 344.543 225.977 349.506 224.594 354.972 222.035 C 356.662 221.242 358.532 221.076 359.801 221.076 C 361.722 221.076 363.675 221.45 365.303 222.129 L 365.39 222.163 C 370.028 223.809 373.066 227.1 373.131 230.556 C 373.189 233.777 370.795 238.593 359.018 243.244 C 357.813 243.722 356.274 244.21 354.647 244.725 C 348.133 246.793 338.3 249.914 335.329 256.917 C 333.715 260.715 334.245 265.378 336.907 270.774 C 336.937 270.834 336.962 270.893 336.991 270.955 C 337.809 272.875 357.644 318.1 401.895 325.39 C 403.759 325.7 405.097 327.361 404.99 329.251 C 404.951 329.928 404.787 330.607 404.501 331.269 C 401.806 337.581 388.182 342.816 365.116 346.379 C 362.952 346.712 362.039 350.211 360.793 355.939 C 360.276 358.304 359.751 360.623 359.035 363.061 C 358.363 365.352 356.87 366.472 354.473 366.472 L 354.111 366.472 C 352.551 366.472 350.338 366.189 347.549 365.643 C 342.674 364.694 337.206 363.81 330.253 363.81 C 326.198 363.81 322.002 364.167 317.778 364.865 C 309.196 366.294 301.865 371.472 294.103 376.958 C 283.234 384.643 270.937 393.335 252.554 393.335"/>
  <rect x="31.774" y="37.549" style="fill: none;" width="421.362" height="421.362"/>
  <g transform="matrix(2.159506, 0, 0, 2.159506, 121.602638, 142.231186)" style="">
    <path d="M97.34,0.74c0.86-0.93,2.3-0.99,3.23-0.13c0.93,0.86,0.99,2.3,0.13,3.23L81.98,24.1l-0.03,0.04 c-2.29,2.77-3.86,5.33-4.56,7.67c-0.62,2.07-0.53,3.95,0.39,5.59c0.49,0.88,0.33,1.96-0.32,2.67l0,0l-8.89,9.62 c-0.87-0.95-1.56-1.72-2.02-2.22c-0.21-0.28-0.45-0.55-0.7-0.81l-0.02,0.02c-0.12-0.13-0.25-0.25-0.38-0.37l7.6-8.23 c-0.89-2.38-0.88-4.91-0.06-7.6c0.88-2.92,2.75-6.03,5.44-9.27c0.06-0.08,0.11-0.16,0.18-0.23L97.32,0.72L97.34,0.74L97.34,0.74z M57.13,55.01c-0.84-0.94-0.76-2.39,0.18-3.23c0.94-0.84,2.39-0.76,3.23,0.18c9.41,10.54,38.5,41.73,46.56,53.39 c10.63,15.05-5.83,19.79-11.29,14.31c-13.64-13.19-42.6-46.82-55.33-61.08c-4.58,1.94-9.03,2.24-13.5,0.96 c-4.81-1.37-9.52-4.58-14.3-9.51l-0.06-0.06c-3.64-3.84-6.49-7.63-8.55-11.38c-2.11-3.86-3.4-7.68-3.86-11.47 c-0.49-4.08-0.11-7.88,0.99-11.25c1.29-3.96,3.58-7.31,6.58-9.8c3.02-2.5,6.73-4.12,10.87-4.62c3.44-0.41,7.19-0.06,11.07,1.21 c5.37,1.75,11.63,6.1,16.82,11.68c3.83,4.11,7.11,8.92,9.06,13.87c2.03,5.16,2.65,10.5,1.02,15.5c-0.96,2.96-2.7,5.74-5.4,8.25 c-0.93,0.86-2.37,0.8-3.23-0.12c-0.86-0.93-0.8-2.37,0.12-3.23c2.09-1.95,3.43-4.08,4.16-6.33c1.26-3.87,0.73-8.16-0.93-12.38 c-1.74-4.42-4.69-8.74-8.15-12.45c-4.68-5.02-10.23-8.91-14.91-10.44c-3.21-1.04-6.28-1.34-9.09-1c-3.26,0.4-6.18,1.65-8.51,3.6 c-2.34,1.95-4.13,4.58-5.16,7.71c-0.89,2.73-1.2,5.87-0.79,9.26c0.39,3.2,1.5,6.47,3.32,9.81c1.91,3.43,4.53,6.9,7.9,10.45 l0.02,0.03c4.22,4.35,8.27,7.15,12.28,8.29c3.79,1.08,7.65,0.66,11.68-1.35c0.92-0.53,2.11-0.35,2.84,0.47 c12.42,13.91,42.63,48.92,56.01,61.89c5.81,2.37,9.03-0.55,6.25-5.7C100.7,102.43,63.5,62.17,57.13,55.01L57.13,55.01L57.13,55.01z M45.07,75.12l-29.16,31.55c-0.06,0.06-0.11,0.12-0.18,0.18c-4.26,4.6,3.28,11.3,7.96,6.82l28.32-30.65l3.04,3.45l-28.1,30.41l0,0 c-0.06,0.07-0.12,0.13-0.2,0.2c-1.68,1.41-3.37,2.33-5.08,2.71c-1.76,0.4-3.49,0.22-5.15-0.56c-0.28-0.11-0.54-0.25-0.77-0.46 l-4.03-3.73l0,0c-0.06-0.06-0.12-0.11-0.18-0.18c-1.56-1.8-2.3-3.72-2.1-5.75c0.19-1.92,1.21-3.79,3.14-5.59l29.44-31.86 L45.07,75.12L45.07,75.12z M75.63,57.46l1.73-1.87c0.86-0.93,2.31-0.99,3.23-0.13s0.99,2.3,0.13,3.23l-2,2.16L75.63,57.46 L75.63,57.46z M104.45,7.43c0.86-0.93,2.3-0.99,3.23-0.13c0.93,0.86,0.99,2.3,0.13,3.23L91.4,28.3c-0.86,0.93-2.3,0.99-3.23,0.13 c-0.93-0.86-0.99-2.3-0.13-3.23L104.45,7.43L104.45,7.43L104.45,7.43z M111.55,14c0.86-0.93,2.3-0.99,3.23-0.13 c0.93,0.86,0.99,2.3,0.13,3.23L98.51,34.86c-0.86,0.93-2.3,0.99-3.23,0.13c-0.93-0.86-0.99-2.3-0.13-3.23L111.55,14L111.55,14 L111.55,14z M118.91,20.83c0.86-0.93,2.3-0.99,3.23-0.13c0.93,0.86,0.99,2.31,0.13,3.23L103.55,44.2c-0.07,0.07-0.14,0.13-0.21,0.2 c-4.26,4.1-8.33,6.47-12.22,7.14c-4.22,0.73-8.09-0.47-11.64-3.57c-0.95-0.83-1.04-2.28-0.22-3.22c0.83-0.95,2.28-1.04,3.22-0.22 c2.45,2.14,5.07,2.98,7.84,2.49c2.98-0.51,6.26-2.48,9.84-5.93l0.02-0.02l18.71-20.25L118.91,20.83L118.91,20.83z"/>
  </g>
</svg>